<svg width="24" height="24" viewBox="0 0 24 24" fill="none" xmlns="http://www.w3.org/2000/svg">
<path d="M2.45401 7.93942C2.7353 7.65822 3.11676 7.50024 3.51451 7.50024C3.91226 7.50024 4.29372 7.65822 4.57501 7.93942L12 15.3644L19.425 7.93942C19.7079 7.66619 20.0868 7.51499 20.4801 7.51841C20.8734 7.52183 21.2496 7.67958 21.5277 7.9577C21.8059 8.23581 21.9636 8.61203 21.967 9.00532C21.9704 9.39862 21.8192 9.77752 21.546 10.0604L13.0605 18.5459C12.7792 18.8271 12.3978 18.9851 12 18.9851C11.6023 18.9851 11.2208 18.8271 10.9395 18.5459L2.45401 10.0604C2.1728 9.77913 2.01483 9.39767 2.01483 8.99992C2.01483 8.60218 2.1728 8.22072 2.45401 7.93942Z" fill="white"/>
</svg>
