<svg width="24" height="24" viewBox="0 0 24 24" fill="none" xmlns="http://www.w3.org/2000/svg">
<g clip-path="url(#clip0_5_103)">
<path d="M21.5533 3.99994C21.4625 3.99058 21.3709 3.99058 21.28 3.99994H2.61333C2.49369 4.00179 2.37485 4.01972 2.25999 4.05328L11.8933 13.6466L21.5533 3.99994Z" fill="#FF012A"/>
<path d="M22.54 4.92676L12.8333 14.5934C12.5835 14.8418 12.2456 14.9811 11.8933 14.9811C11.5411 14.9811 11.2032 14.8418 10.9533 14.5934L1.33333 5.00009C1.30376 5.10878 1.28808 5.22079 1.28667 5.33342V18.6668C1.28667 19.0204 1.42714 19.3595 1.67719 19.6096C1.92724 19.8596 2.26638 20.0001 2.62 20.0001H21.2867C21.6403 20.0001 21.9794 19.8596 22.2295 19.6096C22.4795 19.3595 22.62 19.0204 22.62 18.6668V5.33342C22.6147 5.19453 22.5877 5.05731 22.54 4.92676ZM3.53333 18.6668H2.60667V17.7134L7.45333 12.9068L8.39333 13.8468L3.53333 18.6668ZM21.2733 18.6668H20.34L15.48 13.8468L16.42 12.9068L21.2667 17.7134L21.2733 18.6668Z" fill="#FF012A"/>
</g>
<defs>
<clipPath id="clip0_5_103">
<rect width="24" height="24" fill="white"/>
</clipPath>
</defs>
</svg>
