<svg width="22" height="18" viewBox="0 0 22 18" fill="none" xmlns="http://www.w3.org/2000/svg">
<path d="M15.6434 5.63351C16.2752 5.00176 16.9024 3.52766 14.27 5.31763C11.8111 7.00999 9.33543 8.67787 6.84353 10.3213C6.46406 10.4929 6.05382 10.586 5.63747 10.5951C5.22111 10.6041 4.80721 10.5289 4.42066 10.3739C2.84128 9.90017 0.997515 9.26842 0.997515 9.26842C0.997515 9.26842 -0.261405 8.47759 1.89365 7.63518C1.89365 7.63518 11.0049 3.89619 14.1648 2.57888C15.3757 2.05243 19.4831 0.367746 19.4831 0.367746C19.4831 0.367746 21.3796 -0.370438 21.2216 1.42067C21.169 2.15772 20.7478 4.73967 20.3266 7.52997C19.6938 11.4796 19.0094 15.7988 19.0094 15.7988C19.0094 15.7988 18.904 17.0096 18.0091 17.2203C17.0511 17.204 16.1253 16.8707 15.3767 16.2726C15.1662 16.1146 11.4271 13.7444 10.0572 12.5863C9.91786 12.4918 9.80464 12.3637 9.72809 12.2138C9.65154 12.0639 9.61416 11.8971 9.61942 11.7288C9.62467 11.5605 9.67244 11.3964 9.75819 11.2516C9.84394 11.1067 9.96491 10.986 10.1099 10.9004C11.9888 9.18136 13.8337 7.42535 15.6434 5.63351Z" fill="#FF012A"/>
</svg>
