<svg width="24" height="20" viewBox="0 0 24 20" fill="none" xmlns="http://www.w3.org/2000/svg">
<path d="M23.1786 2.63819C22.3183 3.0114 21.4086 3.25811 20.4776 3.37066C21.4598 2.78391 22.1958 1.86084 22.5491 0.772688C21.6262 1.32211 20.6159 1.70921 19.5621 1.91717C18.8576 1.15331 17.9197 0.644838 16.8952 0.471518C15.8708 0.298186 14.8176 0.469801 13.9012 0.959444C12.9847 1.4491 12.2567 2.22907 11.8313 3.17705C11.4059 4.12503 11.3073 5.1874 11.5507 6.19753C9.6845 6.10313 7.8591 5.61722 6.19298 4.77134C4.52686 3.92547 3.05733 2.73855 1.87983 1.2877C1.46683 2.00891 1.24982 2.82568 1.25036 3.65678C1.2489 4.42859 1.43831 5.18879 1.80173 5.8697C2.16514 6.55061 2.69129 7.13109 3.33332 7.55949C2.5871 7.53912 1.85681 7.3389 1.20459 6.97577V7.033C1.21018 8.11445 1.58912 9.16073 2.27732 9.99483C2.96553 10.829 3.92074 11.3999 4.98137 11.611C4.57309 11.7351 4.14919 11.8007 3.72244 11.8055C3.42704 11.8021 3.13237 11.7752 2.84119 11.7254C3.14323 12.6556 3.72773 13.4686 4.51336 14.0511C5.299 14.6336 6.24669 14.9568 7.22455 14.9757C5.5733 16.2749 3.53461 16.9841 1.43348 16.99C1.05093 16.9913 0.668671 16.9683 0.289001 16.9213C2.43425 18.3064 4.93423 19.0417 7.48778 19.0386C9.24993 19.0569 10.998 18.7239 12.63 18.059C14.2621 17.3941 15.7452 16.4107 16.9929 15.1663C18.2406 13.9218 19.2279 12.4412 19.8969 10.8108C20.566 9.18053 20.9034 7.43324 20.8897 5.67106C20.8897 5.47649 20.8897 5.2705 20.8897 5.06449C21.7877 4.39475 22.5623 3.57371 23.1786 2.63819Z" fill="#FF012A"/>
</svg>
